<svg width="18" height="18" viewBox="0 0 18 18" fill="none" xmlns="http://www.w3.org/2000/svg">
<path d="M17.28 4.02941L9.66461 0.159201C9.46114 0.0547754 9.23247 0 9 0C8.76753 0 8.53886 0.0547754 8.33538 0.159201L0.72 4.03102C0.502519 4.14154 0.320974 4.30427 0.194324 4.50222C0.0676732 4.70016 0.000562723 4.92605 0 5.15631V12.8437C0.000562723 13.0739 0.0676732 13.2998 0.194324 13.4978C0.320974 13.6957 0.502519 13.8585 0.72 13.969L8.33538 17.8408C8.53886 17.9452 8.76753 18 9 18C9.23247 18 9.46114 17.9452 9.66461 17.8408L17.28 13.969C17.4975 13.8585 17.679 13.6957 17.8057 13.4978C17.9323 13.2998 17.9994 13.0739 18 12.8437V5.15712C17.9999 4.92645 17.933 4.70005 17.8063 4.50165C17.6797 4.30324 17.4979 4.14013 17.28 4.02941ZM9 1.2845L15.9525 4.82114L13.3763 6.1313L6.42288 2.59466L9 1.2845ZM9 8.35778L2.0475 4.82114L4.98115 3.32932L11.9337 6.86596L9 8.35778ZM1.38462 5.94643L8.30769 9.46539V16.361L1.38462 12.8445V5.94643ZM16.6154 12.8413L9.69231 16.361V9.46861L12.4615 8.06118V10.9299C12.4615 11.1004 12.5345 11.264 12.6643 11.3846C12.7941 11.5052 12.9702 11.5729 13.1538 11.5729C13.3375 11.5729 13.5135 11.5052 13.6434 11.3846C13.7732 11.264 13.8462 11.1004 13.8462 10.9299V7.35707L16.6154 5.94643V12.8405V12.8413Z" fill="white"/>
</svg>
