<svg width="18" height="14" viewBox="0 0 18 14" fill="none" xmlns="http://www.w3.org/2000/svg">
<path d="M17.3077 12.7826H16.6154V0.608696C16.6154 0.44726 16.5424 0.292435 16.4126 0.178283C16.2828 0.0641304 16.1067 0 15.9231 0H11.0769C10.8933 0 10.7172 0.0641304 10.5874 0.178283C10.4576 0.292435 10.3846 0.44726 10.3846 0.608696V3.65217H6.23077C6.04716 3.65217 5.87107 3.7163 5.74123 3.83046C5.6114 3.94461 5.53846 4.09943 5.53846 4.26087V7.30435H2.07692C1.89331 7.30435 1.71722 7.36848 1.58739 7.48263C1.45755 7.59678 1.38462 7.75161 1.38462 7.91304V12.7826H0.692308C0.508696 12.7826 0.332605 12.8467 0.202772 12.9609C0.0729393 13.075 0 13.2299 0 13.3913C0 13.5527 0.0729393 13.7076 0.202772 13.8217C0.332605 13.9359 0.508696 14 0.692308 14H17.3077C17.4913 14 17.6674 13.9359 17.7972 13.8217C17.9271 13.7076 18 13.5527 18 13.3913C18 13.2299 17.9271 13.075 17.7972 12.9609C17.6674 12.8467 17.4913 12.7826 17.3077 12.7826ZM11.7692 1.21739H15.2308V12.7826H11.7692V1.21739ZM6.92308 4.86957H10.3846V12.7826H6.92308V4.86957ZM2.76923 8.52174H5.53846V12.7826H2.76923V8.52174Z" fill="white"/>
</svg>
