<svg width="18" height="14" viewBox="0 0 18 14" fill="none" xmlns="http://www.w3.org/2000/svg">
<path d="M17.13 2.43804L9.165 0.0246292C9.08389 -2.67148e-05 8.99879 -0.00626086 8.91525 0.00633371L1.0305 1.20111C0.745015 1.24564 0.484048 1.39726 0.29497 1.62845C0.105891 1.85964 0.0012355 2.15507 0 2.46111V11.5389C0.0012355 11.8449 0.105891 12.1403 0.29497 12.3715C0.484048 12.6027 0.745015 12.7543 1.0305 12.7989L8.91525 13.992C8.9433 13.9967 8.97161 13.9994 9 14C9.05582 14.0001 9.11138 13.9918 9.165 13.9753L17.13 11.5619C17.3798 11.4852 17.5995 11.3248 17.7563 11.1048C17.9131 10.8847 17.9986 10.6167 18 10.3409V3.65907C17.9986 3.38323 17.9131 3.11527 17.7563 2.8952C17.5995 2.67514 17.3798 2.51477 17.13 2.43804ZM6.6 6.36362H5.4V1.82475L8.4 1.36975V12.6302L5.4 12.1752V7.63635H6.6C6.75913 7.63635 6.91174 7.5693 7.02426 7.44996C7.13679 7.33062 7.2 7.16876 7.2 6.99998C7.2 6.83121 7.13679 6.66935 7.02426 6.55001C6.91174 6.43066 6.75913 6.36362 6.6 6.36362ZM1.2 2.46111L4.2 2.00611V6.36362H3C2.84087 6.36362 2.68826 6.43066 2.57574 6.55001C2.46321 6.66935 2.4 6.83121 2.4 6.99998C2.4 7.16876 2.46321 7.33062 2.57574 7.44996C2.68826 7.5693 2.84087 7.63635 3 7.63635H4.2V11.9939L1.2 11.5389V2.46111ZM9.6 12.5197V1.48031L16.8 3.65907V10.3409L9.6 12.5197Z" fill="white"/>
</svg>
