<svg width="20" height="15" viewBox="0 0 20 15" fill="none" xmlns="http://www.w3.org/2000/svg">
<path d="M11.6525 6.4075H13.4183C13.4593 6.4075 13.4986 6.39128 13.5276 6.36239C13.5567 6.3335 13.5731 6.29429 13.5733 6.25333V4.68083C13.5733 4.63972 13.557 4.6003 13.5279 4.57123C13.4989 4.54216 13.4594 4.52583 13.4183 4.52583H11.6525C11.6116 4.52583 11.5724 4.54207 11.5435 4.57098C11.5146 4.5999 11.4983 4.63911 11.4983 4.68V6.25333C11.4983 6.33833 11.5675 6.4075 11.6525 6.4075ZM9.19084 1.8825H10.9558C10.9969 1.8825 11.0364 1.86617 11.0654 1.8371C11.0945 1.80803 11.1108 1.76861 11.1108 1.7275V0.154167C11.1106 0.113203 11.0942 0.0739915 11.0651 0.0451034C11.0361 0.0162153 10.9968 -5.9203e-07 10.9558 0H9.19084C9.14995 0 9.11074 0.0162426 9.08183 0.0451545C9.05292 0.0740663 9.03667 0.113279 9.03667 0.154167V1.7275C9.03667 1.8125 9.10501 1.8825 9.19084 1.8825ZM9.19084 4.145H10.9558C10.9969 4.14478 11.0362 4.12838 11.0652 4.09936C11.0942 4.07034 11.1106 4.03104 11.1108 3.99V2.4175C11.1106 2.37653 11.0942 2.33732 11.0651 2.30843C11.0361 2.27955 10.9968 2.26333 10.9558 2.26333H9.19084C9.14995 2.26333 9.11074 2.27957 9.08183 2.30849C9.05292 2.3374 9.03667 2.37661 9.03667 2.4175V3.99C9.03667 4.075 9.10501 4.14416 9.19084 4.145ZM6.74918 4.145H8.51584C8.55666 4.14456 8.59566 4.12803 8.62437 4.09901C8.65308 4.06999 8.66918 4.03082 8.66917 3.99V2.4175C8.66917 2.37661 8.65293 2.3374 8.62402 2.30849C8.59511 2.27957 8.5559 2.26333 8.51501 2.26333H6.75001C6.70912 2.26333 6.66991 2.27957 6.641 2.30849C6.61209 2.3374 6.59584 2.37661 6.59584 2.4175V3.99C6.59584 4.075 6.66501 4.14416 6.75001 4.145M4.28001 4.145H6.04584C6.08681 4.14478 6.12602 4.12835 6.15491 4.0993C6.18379 4.07026 6.20001 4.03096 6.20001 3.99V2.4175C6.20001 2.37661 6.18377 2.3374 6.15486 2.30849C6.12594 2.27957 6.08673 2.26333 6.04584 2.26333H4.28001C4.23905 2.26333 4.19975 2.27955 4.1707 2.30843C4.14166 2.33732 4.12523 2.37653 4.12501 2.4175V3.99C4.12501 4.075 4.19501 4.14416 4.28001 4.145ZM9.19084 6.4075H10.9558C10.9968 6.4075 11.0361 6.39128 11.0651 6.36239C11.0942 6.3335 11.1106 6.29429 11.1108 6.25333V4.68083C11.1108 4.63972 11.0945 4.6003 11.0654 4.57123C11.0364 4.54216 10.9969 4.52583 10.9558 4.52583H9.19084C9.14995 4.52583 9.11074 4.54207 9.08183 4.57098C9.05292 4.5999 9.03667 4.63911 9.03667 4.68V6.25333C9.03667 6.33833 9.10501 6.4075 9.19084 6.4075ZM6.74918 6.4075H8.51584C8.55658 6.40728 8.59558 6.39094 8.62432 6.36205C8.65305 6.33316 8.66918 6.29407 8.66917 6.25333V4.68083C8.66928 4.66058 8.66541 4.64052 8.65776 4.62177C8.65011 4.60302 8.63885 4.58597 8.62461 4.57157C8.61037 4.55718 8.59344 4.54573 8.57477 4.53788C8.55611 4.53004 8.53609 4.52594 8.51584 4.52583H6.74918C6.70843 4.52605 6.66943 4.54239 6.6407 4.57128C6.61197 4.60017 6.59584 4.63925 6.59584 4.68V6.25333C6.59584 6.33833 6.66501 6.4075 6.75001 6.4075M4.28001 6.4075H6.04584C6.08673 6.4075 6.12594 6.39125 6.15486 6.36234C6.18377 6.33343 6.20001 6.29422 6.20001 6.25333V4.68083C6.20012 4.66058 6.19624 4.64052 6.18859 4.62177C6.18095 4.60302 6.16968 4.58597 6.15545 4.57157C6.14121 4.55718 6.12427 4.54573 6.10561 4.53788C6.08695 4.53004 6.06692 4.52594 6.04668 4.52583H4.28001C4.2389 4.52583 4.19948 4.54216 4.17041 4.57123C4.14134 4.6003 4.12501 4.63972 4.12501 4.68083V6.25333C4.12501 6.33833 4.19501 6.4075 4.28001 6.4075ZM1.84668 6.4075H3.61334C3.65409 6.40728 3.69309 6.39094 3.72182 6.36205C3.75055 6.33316 3.76668 6.29407 3.76668 6.25333V4.68083C3.76679 4.66058 3.76291 4.64052 3.75526 4.62177C3.74762 4.60302 3.73635 4.58597 3.72211 4.57157C3.70788 4.55718 3.69094 4.54573 3.67228 4.53788C3.65362 4.53004 3.63359 4.52594 3.61334 4.52583H1.84668C1.80594 4.52605 1.76694 4.54239 1.73821 4.57128C1.70947 4.60017 1.69335 4.63925 1.69335 4.68V6.25333C1.69335 6.33833 1.76085 6.4075 1.84668 6.4075ZM19.8025 5.4175C19.7483 5.375 19.2425 4.9925 18.1742 4.9925C17.8925 4.99333 17.6108 5.0175 17.3325 5.065C17.1258 3.64833 15.955 2.95666 15.9025 2.92666L15.6158 2.76083L15.4275 3.03333C15.1908 3.39833 15.0192 3.80166 14.9175 4.225C14.7258 5.03333 14.8425 5.79333 15.2533 6.4425C14.7575 6.71916 13.9617 6.78666 13.8 6.79249H0.625847C0.460443 6.79271 0.301851 6.8584 0.184736 6.97521C0.0676211 7.09201 0.00150811 7.25042 0.000847521 7.41583C-0.0145844 8.56986 0.180843 9.717 0.577514 10.8008C1.03168 11.9908 1.70668 12.8675 2.58585 13.4042C3.56918 14.0067 5.16918 14.3517 6.98168 14.3517C7.80084 14.3542 8.61751 14.28 9.42334 14.13C10.5424 13.9244 11.6192 13.5332 12.6092 12.9725C13.4258 12.5 14.1592 11.8992 14.7842 11.1925C15.8275 10.0108 16.4492 8.69499 16.9117 7.52583H17.0958C18.2392 7.52583 18.9417 7.06833 19.3292 6.685C19.5867 6.44083 19.7875 6.14333 19.9183 5.81333L20 5.57333L19.8025 5.4175Z" fill="#2560FF"/>
</svg>
