<svg width="16" height="15" viewBox="0 0 16 15" fill="none" xmlns="http://www.w3.org/2000/svg">
<path d="M15.7714 11.7202L9.52528 0.872859C9.36919 0.607105 9.14637 0.386755 8.87889 0.23365C8.61141 0.0805444 8.30856 0 8.00036 0C7.69216 0 7.38931 0.0805444 7.12182 0.23365C6.85434 0.386755 6.63152 0.607105 6.47543 0.872859L0.229326 11.7202C0.079145 11.9772 0 12.2696 0 12.5673C0 12.865 0.079145 13.1573 0.229326 13.4144C0.383411 13.6817 0.605857 13.9033 0.873837 14.0563C1.14182 14.2093 1.44568 14.2882 1.75425 14.285H14.2465C14.5548 14.288 14.8584 14.2089 15.1261 14.0559C15.3938 13.9029 15.616 13.6815 15.77 13.4144C15.9204 13.1574 15.9997 12.8652 16 12.5675C16.0002 12.2698 15.9214 11.9773 15.7714 11.7202ZM7.42896 5.71404C7.42896 5.5625 7.48916 5.41716 7.59632 5.31C7.70347 5.20284 7.84881 5.14264 8.00036 5.14264C8.1519 5.14264 8.29724 5.20284 8.4044 5.31C8.51155 5.41716 8.57176 5.5625 8.57176 5.71404V8.57104C8.57176 8.72258 8.51155 8.86792 8.4044 8.97508C8.29724 9.08223 8.1519 9.14244 8.00036 9.14244C7.84881 9.14244 7.70347 9.08223 7.59632 8.97508C7.48916 8.86792 7.42896 8.72258 7.42896 8.57104V5.71404ZM8.00036 11.9994C7.83084 11.9994 7.66513 11.9492 7.52418 11.855C7.38323 11.7608 7.27337 11.6269 7.2085 11.4703C7.14363 11.3137 7.12665 11.1414 7.15973 10.9751C7.1928 10.8089 7.27443 10.6561 7.3943 10.5363C7.51416 10.4164 7.66688 10.3348 7.83314 10.3017C7.9994 10.2686 8.17174 10.2856 8.32835 10.3505C8.48497 10.4153 8.61883 10.5252 8.71301 10.6662C8.80719 10.8071 8.85745 10.9728 8.85745 11.1423C8.85745 11.3696 8.76715 11.5877 8.60642 11.7484C8.44568 11.9091 8.22767 11.9994 8.00036 11.9994Z" fill="white"/>
</svg>
