<svg width="16" height="16" viewBox="0 0 16 16" fill="none" xmlns="http://www.w3.org/2000/svg">
<path d="M15.6092 6.77452L8.9425 0.374602C8.69248 0.13474 8.35347 0 8 0C7.64653 0 7.30752 0.13474 7.0575 0.374602L0.390841 6.77452C0.266428 6.89307 0.167807 7.03418 0.100711 7.18964C0.0336155 7.34511 -0.000615546 7.51183 8.37789e-06 7.68011V15.36C8.37789e-06 15.5297 0.0702463 15.6925 0.19527 15.8126C0.320295 15.9326 0.489864 16 0.666674 16H6C6.17681 16 6.34638 15.9326 6.47141 15.8126C6.59643 15.6925 6.66667 15.5297 6.66667 15.36V10.8801H9.33333V15.36C9.33333 15.5297 9.40357 15.6925 9.52859 15.8126C9.65362 15.9326 9.82319 16 10 16H15.3333C15.5101 16 15.6797 15.9326 15.8047 15.8126C15.9298 15.6925 16 15.5297 16 15.36V7.68011C16.0006 7.51183 15.9664 7.34511 15.8993 7.18964C15.8322 7.03418 15.7336 6.89307 15.6092 6.77452ZM14.6667 14.72H10.6667V10.2401C10.6667 10.0703 10.5964 9.90755 10.4714 9.78753C10.3464 9.66751 10.1768 9.60008 10 9.60008H6C5.82319 9.60008 5.65362 9.66751 5.5286 9.78753C5.40357 9.90755 5.33334 10.0703 5.33334 10.2401V14.72H1.33334V7.68011L8 1.28019L14.6667 7.68011V14.72Z" fill="white"/>
</svg>
