<svg width="18" height="14" viewBox="0 0 18 14" fill="none" xmlns="http://www.w3.org/2000/svg">
<path d="M16.6154 0H1.38462C1.01739 0 0.66521 0.13409 0.405544 0.372773C0.145879 0.611456 0 0.935179 0 1.27273V12.7273C0 13.0648 0.145879 13.3885 0.405544 13.6272C0.66521 13.8659 1.01739 14 1.38462 14H16.6154C16.9826 14 17.3348 13.8659 17.5945 13.6272C17.8541 13.3885 18 13.0648 18 12.7273V1.27273C18 0.935179 17.8541 0.611456 17.5945 0.372773C17.3348 0.13409 16.9826 0 16.6154 0ZM16.6154 1.27273V4.45455H1.38462V1.27273H16.6154ZM1.38462 5.72727H6.23077V12.7273H1.38462V5.72727ZM16.6154 12.7273H7.61539V5.72727H16.6154V12.7273Z" fill="white"/>
</svg>
