<svg width="16" height="17" viewBox="0 0 16 17" fill="none" xmlns="http://www.w3.org/2000/svg">
<path d="M5.27155 1.38222C5.24127 1.26538 5.23432 1.14371 5.2511 1.02418C5.26787 0.904647 5.30805 0.789594 5.36932 0.685599C5.4306 0.581604 5.51177 0.490707 5.6082 0.418105C5.70463 0.345503 5.81442 0.292621 5.9313 0.262481C7.28675 -0.0874938 8.70888 -0.0874938 10.0643 0.262481C10.1837 0.290127 10.2964 0.341391 10.3957 0.413254C10.495 0.485118 10.5789 0.576126 10.6424 0.680918C10.706 0.785709 10.7479 0.902163 10.7658 1.02342C10.7837 1.14467 10.7771 1.26828 10.7464 1.38695C10.7158 1.50562 10.6617 1.61695 10.5873 1.71439C10.513 1.81183 10.4199 1.8934 10.3135 1.95431C10.2072 2.01521 10.0897 2.0542 9.96802 2.069C9.84636 2.08379 9.72296 2.07408 9.6051 2.04045C8.55082 1.76861 7.44481 1.76861 6.39053 2.04045C6.15486 2.10142 5.90463 2.06634 5.69481 1.94292C5.485 1.81949 5.33276 1.61783 5.27155 1.38222ZM2.09983 2.47594C1.11935 3.4749 0.408334 4.70627 0.0333228 6.05484C0.00111381 6.17113 -0.00786371 6.29263 0.00690342 6.41239C0.0216706 6.53215 0.0598928 6.64783 0.119386 6.75281C0.178879 6.85779 0.258477 6.95003 0.35363 7.02423C0.448783 7.09844 0.557627 7.15317 0.673942 7.1853C0.753763 7.20707 0.836124 7.21814 0.918861 7.21821C1.11969 7.21812 1.31496 7.1522 1.47476 7.03055C1.63456 6.90891 1.75008 6.73824 1.80363 6.54468C2.09529 5.49621 2.64832 4.53894 3.41092 3.76254C3.4954 3.67645 3.5621 3.57457 3.6072 3.46271C3.65231 3.35084 3.67493 3.23119 3.6738 3.11058C3.67266 2.98997 3.64778 2.87077 3.60057 2.75978C3.55337 2.64879 3.48476 2.54818 3.39868 2.4637C3.31259 2.37922 3.2107 2.31252 3.09884 2.26742C2.98698 2.22232 2.86733 2.19969 2.74672 2.20082C2.62611 2.20196 2.50691 2.22684 2.39591 2.27405C2.28492 2.32125 2.18431 2.38986 2.09983 2.47594ZM1.80287 9.98733C1.73378 9.7572 1.57725 9.56331 1.36687 9.44724C1.15648 9.33117 0.908988 9.30217 0.677469 9.36646C0.445949 9.43075 0.248843 9.58321 0.128424 9.79113C0.00800484 9.99906 -0.0261364 10.2459 0.0333228 10.4787C0.407786 11.8279 1.11886 13.0599 2.09983 14.0591C2.27369 14.2171 2.50148 14.3025 2.73636 14.2977C2.97124 14.2929 3.19535 14.1983 3.3626 14.0333C3.52984 13.8683 3.62751 13.6455 3.6355 13.4107C3.64349 13.1759 3.5612 12.947 3.40556 12.771C2.64441 11.9937 2.09297 11.0359 1.80287 9.98733ZM9.6051 14.4931C8.55086 14.7653 7.44476 14.7653 6.39053 14.4931C6.27267 14.4595 6.14927 14.4497 6.0276 14.4645C5.90593 14.4793 5.78846 14.5183 5.68209 14.5792C5.57573 14.6401 5.48263 14.7217 5.40829 14.8191C5.33394 14.9166 5.27985 15.0279 5.2492 15.1466C5.21855 15.2653 5.21196 15.3889 5.22982 15.5101C5.24768 15.6314 5.28963 15.7478 5.3532 15.8526C5.41676 15.9574 5.50066 16.0484 5.59995 16.1203C5.69923 16.1921 5.81189 16.2434 5.9313 16.2711C7.28675 16.621 8.70888 16.621 10.0643 16.2711C10.1837 16.2434 10.2964 16.1921 10.3957 16.1203C10.495 16.0484 10.5789 15.9574 10.6424 15.8526C10.706 15.7478 10.7479 15.6314 10.7658 15.5101C10.7837 15.3889 10.7771 15.2653 10.7464 15.1466C10.7158 15.0279 10.6617 14.9166 10.5873 14.8191C10.513 14.7217 10.4199 14.6401 10.3135 14.5792C10.2072 14.5183 10.0897 14.4793 9.96802 14.4645C9.84636 14.4497 9.72296 14.4595 9.6051 14.4931ZM15.324 9.34824C15.0896 9.28435 14.8395 9.31589 14.6284 9.43594C14.4173 9.556 14.2623 9.75481 14.1973 9.98886C13.9057 11.0373 13.3527 11.9946 12.5901 12.771C12.4193 12.9448 12.3246 13.1792 12.3268 13.4228C12.329 13.6664 12.4278 13.8991 12.6015 14.0698C12.7753 14.2406 13.0098 14.3353 13.2533 14.3331C13.4969 14.3309 13.7297 14.2321 13.9004 14.0584C14.8807 13.059 15.5917 11.8274 15.9669 10.4787C15.999 10.3622 16.0079 10.2405 15.9929 10.1206C15.978 10.0007 15.9395 9.88489 15.8797 9.77987C15.8199 9.67486 15.74 9.58267 15.6445 9.50861C15.549 9.43454 15.4398 9.38004 15.3232 9.34824H15.324ZM14.1935 6.54621C14.2626 6.77634 14.4191 6.97023 14.6295 7.0863C14.8399 7.20237 15.0874 7.23137 15.3189 7.16708C15.5504 7.10279 15.7475 6.95033 15.868 6.74241C15.9884 6.53448 16.0225 6.28764 15.9631 6.05484C15.5886 4.7056 14.8775 3.47359 13.8966 2.47441C13.8136 2.3817 13.7128 2.30679 13.6 2.25422C13.4873 2.20166 13.3651 2.17254 13.2408 2.16863C13.1165 2.16472 12.9926 2.1861 12.8768 2.23148C12.761 2.27685 12.6556 2.34528 12.5671 2.4326C12.4785 2.51993 12.4086 2.62433 12.3616 2.73948C12.3146 2.85463 12.2914 2.97814 12.2936 3.1025C12.2957 3.22686 12.3231 3.34948 12.3741 3.46294C12.4251 3.5764 12.4985 3.67833 12.5901 3.76254C13.3512 4.53988 13.9027 5.49766 14.1928 6.54621H14.1935Z" fill="white"/>
</svg>
