<svg width="16" height="14" viewBox="0 0 16 14" fill="none" xmlns="http://www.w3.org/2000/svg">
<path d="M16 6.89804C16 7.11753 15.9128 7.32803 15.7576 7.48323C15.6024 7.63844 15.3919 7.72563 15.1724 7.72563H13.4772L10.9469 12.7856C10.8781 12.923 10.7725 13.0386 10.6418 13.1193C10.5111 13.2001 10.3605 13.2429 10.2069 13.2429H10.1655C10.005 13.2347 9.85038 13.1801 9.72044 13.0855C9.5905 12.991 9.4909 12.8607 9.43379 12.7105L5.72414 2.97735L3.78759 7.24287C3.72151 7.38704 3.6154 7.50919 3.48188 7.59477C3.34837 7.68036 3.19307 7.72578 3.03448 7.72563H0.827586C0.608097 7.72563 0.397597 7.63844 0.242394 7.48323C0.0871919 7.32803 0 7.11753 0 6.89804C0 6.67855 0.0871919 6.46805 0.242394 6.31285C0.397597 6.15765 0.608097 6.07046 0.827586 6.07046H2.50138L5.04 0.48425C5.1077 0.335765 5.21779 0.21061 5.35643 0.124522C5.49507 0.0384334 5.65606 -0.00474553 5.81917 0.000413841C5.98228 0.00557321 6.14022 0.0588406 6.27314 0.153519C6.40606 0.248197 6.50802 0.380059 6.56621 0.532526L10.3097 10.3574L12.2255 6.52563C12.2946 6.38863 12.4003 6.27351 12.531 6.19313C12.6617 6.11276 12.8121 6.07028 12.9655 6.07046H15.1724C15.3919 6.07046 15.6024 6.15765 15.7576 6.31285C15.9128 6.46805 16 6.67855 16 6.89804Z" fill="white"/>
</svg>
