<svg width="16" height="16" viewBox="0 0 16 16" fill="none" xmlns="http://www.w3.org/2000/svg">
<path d="M16 8C16.0006 8.20893 15.9373 8.41444 15.8162 8.59654C15.6951 8.77864 15.5204 8.93113 15.3091 9.03918L2.21091 15.8189C1.99008 15.9333 1.73715 15.9957 1.47825 15.9998C1.21935 16.0038 0.963868 15.9493 0.738182 15.8419C0.514645 15.7362 0.328433 15.582 0.198694 15.3951C0.0689558 15.2083 0.000373507 14.9956 0 14.7789V1.22109C0.000373507 1.0044 0.0689558 0.791702 0.198694 0.604871C0.328433 0.41804 0.514645 0.263819 0.738182 0.158069C0.963868 0.0506496 1.21935 -0.00384561 1.47825 0.000211026C1.73715 0.00426766 1.99008 0.0667292 2.21091 0.181145L15.3091 6.96082C15.5204 7.06887 15.6951 7.22136 15.8162 7.40346C15.9373 7.58556 16.0006 7.79107 16 8Z" fill="white"/>
</svg>
